<svg width="107.5" height="66.6" viewBox="0 0 107.5 66.6" xmlns="http://www.w3.org/2000/svg"><g id="svgGroup" stroke-linecap="round" fill-rule="evenodd" font-size="9pt" stroke="#000000" stroke-width="0.25mm" fill="none" style="stroke:#000000;stroke-width:0.25mm;fill:none"><path d="M 0 63.2 L 2.7 45.2 L 15.5 45.2 L 18.6 58 L 29.7 58 L 29.7 50.5 L 10 35.9 Q 5.8 32.8 3.6 28.5 Q 1.4 24.2 1.4 17.2 Q 1.4 11.4 3.55 7.95 Q 5.7 4.5 9.35 2.8 Q 13 1.1 17.8 0.55 Q 22.6 0 27.8 0 Q 33 0 39.25 0.95 Q 45.5 1.9 50.7 3.4 L 48 21.4 L 36.4 21.4 L 33.7 8.6 L 23.7 8.6 L 23.7 16.1 L 43.4 30.7 Q 47.6 33.8 49.8 38.1 Q 52 42.4 52 49.4 Q 52 55.2 49.85 58.65 Q 47.7 62.1 44 63.8 Q 40.3 65.5 35.55 66.05 Q 30.8 66.6 25.6 66.6 Q 21.8 66.6 17.25 66.15 Q 12.7 65.7 8.25 64.95 Q 3.8 64.2 0 63.2 Z M 55.5 63.2 L 58.2 45.2 L 71 45.2 L 74.1 58 L 85.2 58 L 85.2 50.5 L 65.5 35.9 Q 61.3 32.8 59.1 28.5 Q 56.9 24.2 56.9 17.2 Q 56.9 11.4 59.05 7.95 Q 61.2 4.5 64.85 2.8 Q 68.5 1.1 73.3 0.55 Q 78.1 0 83.3 0 Q 88.5 0 94.75 0.95 Q 101 1.9 106.2 3.4 L 103.5 21.4 L 91.9 21.4 L 89.2 8.6 L 79.2 8.6 L 79.2 16.1 L 98.9 30.7 Q 103.1 33.8 105.3 38.1 Q 107.5 42.4 107.5 49.4 Q 107.5 55.2 105.35 58.65 Q 103.2 62.1 99.5 63.8 Q 95.8 65.5 91.05 66.05 Q 86.3 66.6 81.1 66.6 Q 77.3 66.6 72.75 66.15 Q 68.2 65.7 63.75 64.95 Q 59.3 64.2 55.5 63.2 Z" vector-effect="non-scaling-stroke"/></g></svg>